<svg id="Layer_1" data-name="Layer 1" xmlns="http://www.w3.org/2000/svg" xmlns:xlink="http://www.w3.org/1999/xlink" viewBox="0 0 1920 1669"><defs><style>.cls-1{fill:#070707;}.cls-2{clip-path:url(#clip-path);}.cls-3{fill:#0d0d0d;stroke:#3a3535;stroke-miterlimit:10;stroke-width:0.5px;}</style><clipPath id="clip-path"><path id="Intersezione_6" data-name="Intersezione 6" class="cls-1" d="M0,1669V324.2C266.5,120.8,599.4,0,960.5,0c360.7,0,693.2,120.5,959.5,323.4V1669Z"/></clipPath></defs><path id="Intersezione_6-2" data-name="Intersezione 6" class="cls-1" d="M0,1669V324.2C266.5,120.8,599.4,0,960.5,0c360.7,0,693.2,120.5,959.5,323.4V1669Z"/><g class="cls-2"><path class="cls-3" d="M959.87,869.71V-633.15"/><path class="cls-3" d="M960,869.71,1148.39-621.45"/><path class="cls-3" d="M960,869.71l373.79-1455.8"/><path class="cls-3" d="M960,869.71,1513.27-527.75"/><path class="cls-3" d="M960,869.71,1684-447.38"/><path class="cls-3" d="M960,869.72,1843.41-346.21"/><path class="cls-3" d="M960,869.71,1988.85-225.93"/><path class="cls-3" d="M960,869.71l1158-958"/><path class="cls-3" d="M960,869.72,2229,64.37"/><path class="cls-3" d="M960,869.71,2319.92,229.78"/><path class="cls-3" d="M960,869.71,2389.4,405.22"/><path class="cls-3" d="M960,869.72,2436.34,588.07"/><path class="cls-3" d="M960,869.72l1500-94.38"/><path class="cls-3" d="M960,869.71,2460,964"/><path class="cls-3" d="M960,869.71,2436.34,1151.3"/><path class="cls-3" d="M960,869.71l1429.4,464.43"/><path class="cls-3" d="M960,869.71l1359.92,639.93"/><path class="cls-3" d="M960,869.71,2229,1675"/><path class="cls-3" d="M960,869.71l1158,958"/><path class="cls-3" d="M960,869.71,1988.85,1965.3"/><path class="cls-3" d="M960,869.71l883.41,1215.93"/><path class="cls-3" d="M960,869.71l724,1317"/><path class="cls-3" d="M960,869.71l553.27,1397.4"/><path class="cls-3" d="M960,869.71l373.79,1455.74"/><path class="cls-3" d="M960,869.71l188.39,1491.1"/><path class="cls-3" d="M959.87,869.71V2372.58"/><path class="cls-3" d="M960,869.71,771.61,2360.81"/><path class="cls-3" d="M960,869.71,586.21,2325.45"/><path class="cls-3" d="M960,869.71,406.73,2267.11"/><path class="cls-3" d="M960,869.71l-724,1317"/><path class="cls-3" d="M960,869.71,76.58,2085.64"/><path class="cls-3" d="M960,869.71-68.85,1965.3"/><path class="cls-3" d="M960,869.71l-1158,958"/><path class="cls-3" d="M960,869.71-309,1675"/><path class="cls-3" d="M960,869.71-399.92,1509.64"/><path class="cls-3" d="M960,869.71-469.4,1334.14"/><path class="cls-3" d="M960,869.71-516.34,1151.3"/><path class="cls-3" d="M960,869.71-540,964"/><path class="cls-3" d="M960,869.72-540,775.34"/><path class="cls-3" d="M960,869.72-516.34,588.07"/><path class="cls-3" d="M960,869.71-469.4,405.22"/><path class="cls-3" d="M960,869.71-399.92,229.78"/><path class="cls-3" d="M960,869.72-309,64.37"/><path class="cls-3" d="M960,869.71l-1158-958"/><path class="cls-3" d="M960,869.71-68.85-225.93"/><path class="cls-3" d="M960,869.72,76.58-346.21"/><path class="cls-3" d="M960,869.71,236-447.38"/><path class="cls-3" d="M960,869.71,406.73-527.75"/><path class="cls-3" d="M960,869.71,586.21-586.09"/><path class="cls-3" d="M960,869.71,771.61-621.45"/></g></svg>